M48
; DRILL file {KiCad 9.0.7} date 2026-03-16T21:53:05+0100
; FORMAT={-:-/ absolute / metric / decimal}
; #@! TF.CreationDate,2026-03-16T21:53:05+01:00
; #@! TF.GenerationSoftware,Kicad,Pcbnew,9.0.7
; #@! TF.FileFunction,MixedPlating,1,2
FMAT,2
METRIC
; #@! TA.AperFunction,Plated,PTH,ViaDrill
T1C0.300
; #@! TA.AperFunction,Plated,PTH,ComponentDrill
T2C0.600
; #@! TA.AperFunction,Plated,PTH,ComponentDrill
T3C1.000
; #@! TA.AperFunction,NonPlated,NPTH,ComponentDrill
T4C0.650
; #@! TA.AperFunction,NonPlated,NPTH,ComponentDrill
T5C1.702
; #@! TA.AperFunction,NonPlated,NPTH,ComponentDrill
T6C2.100
; #@! TA.AperFunction,NonPlated,NPTH,ComponentDrill
T7C3.000
; #@! TA.AperFunction,NonPlated,NPTH,ComponentDrill
T8C3.988
%
G90
G05
T1
X113.58Y-44.1
X114.37Y-45.26
X114.84Y-49.65
X115.24Y-100.62
X115.96Y-45.68
X116.21Y-81.87
X117.31Y-45.73
X117.625Y-43.538
X119.39Y-49.52
X119.49Y-42.04
X121.29Y-42.61
X121.55Y-49.31
X122.8Y-57.21
X123.41Y-39.46
X123.57Y-37.34
X124.622Y-54.06
X126.86Y-77.91
X126.99Y-46.34
X127.24Y-45.41
X128.02Y-97.43
X128.98Y-59.69
X131.12Y-43.43
X132.43Y-45.06
X133.89Y-62.55
X133.97Y-101.04
X134.03Y-81.8
X137.3Y-41.28
X138.08Y-50.68
X138.38Y-31.79
X139.01Y-47.43
X140.31Y-36.55
X140.42Y-40.41
X143.15Y-41.84
X145.06Y-40.0
X146.35Y-53.74
X147.0Y-49.19
X147.63Y-43.23
X148.43Y-40.37
X151.87Y-44.37
X152.26Y-46.76
X153.28Y-81.91
X153.86Y-62.6
X154.253Y-54.305
X154.3Y-44.2
X154.68Y-53.47
X154.87Y-54.95
X155.05Y-101.02
X155.64Y-45.73
X158.94Y-52.98
X166.49Y-50.35
X166.51Y-38.01
T3
X127.69Y-34.25
X130.23Y-34.25
X132.77Y-34.25
X135.31Y-34.25
T4
X162.795Y-40.79
X162.795Y-46.57
T5
X115.59Y-86.69
X115.61Y-105.83
X115.68Y-67.52
X125.75Y-86.69
X125.77Y-105.83
X125.84Y-67.52
X134.32Y-105.82
X134.44Y-86.76
X134.63Y-67.66
X144.48Y-105.82
X144.6Y-86.76
X144.79Y-67.66
X154.32Y-86.76
X154.35Y-105.92
X154.655Y-67.59
X164.48Y-86.76
X164.51Y-105.92
X164.815Y-67.59
T6
X2.375Y-2.375
X112.64Y-115.42
X113.04Y-33.64
X165.79Y-33.62
X166.61Y-115.48
T7
X116.86Y-84.15
X116.88Y-103.29
X116.95Y-64.98
X123.21Y-81.61
X123.23Y-100.75
X123.3Y-62.44
X135.59Y-103.28
X135.71Y-84.22
X135.9Y-65.12
X141.94Y-100.74
X142.06Y-81.68
X142.25Y-62.58
X155.59Y-84.22
X155.62Y-103.38
X155.925Y-65.05
X161.94Y-81.68
X161.97Y-100.84
X162.275Y-62.51
T8
X120.67Y-86.69
X120.69Y-105.83
X120.76Y-67.52
X139.4Y-105.82
X139.52Y-86.76
X139.71Y-67.66
X159.4Y-86.76
X159.43Y-105.92
X159.735Y-67.59
T2
G00X161.745Y-39.36
M15
G01X162.845Y-39.36
M16
G05
G00X161.745Y-48.0
M15
G01X162.845Y-48.0
M16
G05
G00X166.075Y-39.36
M15
G01X166.875Y-39.36
M16
G05
G00X166.075Y-48.0
M15
G01X166.875Y-48.0
M16
G05
M30
